<?xml version="1.0" standalone="no"?><!DOCTYPE svg PUBLIC "-//W3C//DTD SVG 1.1//EN" "http://www.w3.org/Graphics/SVG/1.1/DTD/svg11.dtd"><svg t="1689822080879" class="icon" viewBox="0 0 1024 1024" version="1.1" xmlns="http://www.w3.org/2000/svg" p-id="1638" xmlns:xlink="http://www.w3.org/1999/xlink" width="200" height="200"><path d="M443.733333 341.333333c-6.826667 0-13.653333-3.413333-17.066666-13.653333 0-6.826667-34.133333-133.12-34.133334-180.906667 0-23.893333 13.653333-81.92 122.88-81.92 58.026667 0 184.32 58.026667 184.32 102.4 0 20.48-23.893333 34.133333-58.026666 51.2s-81.92 40.96-78.506667 68.266667c0 13.653333-6.826667 20.48-17.066667 20.48s-17.066667-6.826667-17.066666-17.066667c-3.413333-51.2 54.613333-78.506667 98.986666-98.986666 13.653333-6.826667 30.72-17.066667 37.546667-20.48-10.24-20.48-95.573333-68.266667-150.186667-68.266667-34.133333 0-88.746667 6.826667-88.746666 47.786667 0 34.133333 23.893333 136.533333 34.133333 170.666666 3.413333 10.24-3.413333 17.066667-13.653333 20.48H443.733333zM354.986667 576.853333c-27.306667 0-61.44-17.066667-95.573334-75.093333-17.066667-27.306667-27.306667-71.68-27.306666-116.053333 0-34.133333 0-81.92 23.893333-95.573334 17.066667-10.24 40.96 3.413333 71.68 23.893334 30.72 20.48 75.093333 51.2 98.986667 34.133333 6.826667-3.413333 17.066667-3.413333 23.893333 6.826667 3.413333 6.826667 3.413333 17.066667-6.826667 23.893333-40.96 27.306667-95.573333-10.24-136.533333-34.133333-10.24-10.24-27.306667-20.48-34.133333-23.893334-10.24 17.066667-10.24 116.053333 17.066666 160.426667 17.066667 27.306667 51.2 75.093333 85.333334 54.613333 30.72-17.066667 105.813333-88.746667 129.706666-116.053333 6.826667-6.826667 17.066667-6.826667 23.893334 0 6.826667 6.826667 6.826667 17.066667 0 23.893333-3.413333 3.413333-95.573333 95.573333-136.533334 119.466667-10.24 6.826667-20.48 13.653333-37.546666 13.653333zM597.333333 617.813333c-6.826667 0-13.653333 0-17.066666-3.413333-17.066667-10.24-17.066667-37.546667-13.653334-75.093333 3.413333-37.546667 6.826667-88.746667-20.48-102.4-6.826667-3.413333-10.24-13.653333-6.826666-23.893334 3.413333-6.826667 13.653333-10.24 23.893333-6.826666 44.373333 23.893333 40.96 88.746667 37.546667 136.533333 0 13.653333-3.413333 34.133333 0 44.373333 20.48 0 105.813333-51.2 133.12-95.573333 13.653333-23.893333 23.893333-47.786667 23.893333-64.853333s-6.826667-27.306667-17.066667-34.133334c-30.72-17.066667-129.706667-47.786667-163.84-54.613333-10.24-3.413333-13.653333-10.24-13.653333-20.48 3.413333-10.24 10.24-13.653333 20.48-13.653333 6.826667 0 133.12 37.546667 174.08 58.026666 23.893333 13.653333 37.546667 37.546667 34.133333 64.853334 0 23.893333-10.24 51.2-27.306666 81.92-30.72 44.373333-119.466667 109.226667-167.253334 109.226666zM716.8 1024H273.066667c-6.826667 0-13.653333-3.413333-17.066667-10.24s0-13.653333 3.413333-17.066667l170.666667-170.666666c3.413333-3.413333 6.826667-3.413333 13.653333-3.413334h102.4c3.413333 0 10.24 3.413333 13.653334 3.413334l170.666666 170.666666c3.413333 3.413333 6.826667 13.653333 3.413334 17.066667s-10.24 10.24-17.066667 10.24zM314.026667 989.866667h361.813333l-136.533333-136.533334h-88.746667l-136.533333 136.533334z" fill="#1296db" p-id="1639"></path><path d="M546.133333 846.506667c-10.24 0-17.066667-6.826667-17.066666-17.066667v-129.706667c0-10.24 6.826667-17.066667 17.066666-17.066666s17.066667 6.826667 17.066667 17.066666v129.706667c0 6.826667-6.826667 17.066667-17.066667 17.066667zM443.733333 853.333333c-10.24 0-17.066667-6.826667-17.066666-17.066666v-136.533334c0-10.24 6.826667-17.066667 17.066666-17.066666s17.066667 6.826667 17.066667 17.066666v136.533334c0 10.24-6.826667 17.066667-17.066667 17.066666z" fill="#1296db" p-id="1640"></path><path d="M512 716.8C314.026667 716.8 153.6 556.373333 153.6 358.4S314.026667 0 512 0s358.4 160.426667 358.4 358.4S709.973333 716.8 512 716.8z m0-682.666667c-177.493333 0-324.266667 146.773333-324.266667 324.266667S334.506667 682.666667 512 682.666667s324.266667-146.773333 324.266667-324.266667S689.493333 34.133333 512 34.133333z" fill="#1296db" p-id="1641"></path><path d="M512 443.733333c-47.786667 0-85.333333-37.546667-85.333333-85.333333S464.213333 273.066667 512 273.066667s85.333333 37.546667 85.333333 85.333333S559.786667 443.733333 512 443.733333z m0-136.533333c-27.306667 0-51.2 23.893333-51.2 51.2S484.693333 409.6 512 409.6s51.2-23.893333 51.2-51.2S539.306667 307.2 512 307.2z" fill="#1296db" p-id="1642"></path><path d="M512 358.4m-17.066667 0a17.066667 17.066667 0 1 0 34.133334 0 17.066667 17.066667 0 1 0-34.133334 0Z" fill="#1296db" p-id="1643"></path><path d="M512 358.4m-34.133333 0a34.133333 34.133333 0 1 0 68.266666 0 34.133333 34.133333 0 1 0-68.266666 0Z" fill="#1296db" p-id="1644"></path></svg>